<?xml version='1.0' encoding='utf-8'?>
<svg xmlns="http://www.w3.org/2000/svg" id="Capa_1" enable-background="new 0 0 512 512" height="512" viewBox="0 0 512 512" width="512"><g><g><path d="m120 512v-60.835c-67.412-7.485-120-64.79-120-134.165v-182c0-74.443 60.557-135 135-135h242c74.443 0 135 60.557 135 135v182c0 74.443-60.557 135-135 135h-177.005z" fill="#6cf" /></g><path d="m377 0h-121v452h121c74.443 0 135-60.557 135-135v-182c0-74.443-60.557-135-135-135z" fill="#59abff" /><g id="Chatbot_18_"><g><g><g><g><path d="m241 61h30v75h-30z" fill="#cfd7e6" /></g></g></g><path d="m256 61h15v75h-15z" fill="#adb8cc" /><g><g><path d="m406 211h45v30h-45z" fill="#adb8cc" /></g></g><g><g><g><path d="m61 211h45v30h-45z" fill="#cfd7e6" /></g></g></g><path d="m346 391h-180c-41.353 0-75-33.647-75-75v-120c0-41.353 33.647-75 75-75h180c41.353 0 75 33.647 75 75v120c0 41.353-33.647 75-75 75z" fill="#f3f5f9" /><path d="m346 121h-90v270h90c41.353 0 75-33.647 75-75v-120c0-41.353-33.647-75-75-75z" fill="#e1e6f0" /><path d="m166 361c-24.814 0-45-20.186-45-45v-120c0-24.814 20.186-45 45-45h180c24.814 0 45 20.186 45 45v120c0 24.814-20.186 45-45 45z" fill="#4d4d80" /><path d="m346 151h-90v210h90c24.814 0 45-20.186 45-45v-120c0-24.814-20.186-45-45-45z" fill="#443d66" /></g><g><path d="m166 181h30v30h-30z" fill="#6cf" /></g><g><path d="m316 181h30v30h-30z" fill="#59abff" /></g><g><path d="m256 331c-33.091 0-60-26.909-60-60v-30h120v30c0 33.091-26.909 60-60 60z" fill="#6cf" /></g></g><g><path d="m316 271v-30h-60v90c33.091 0 60-26.909 60-60z" fill="#59abff" /></g></g><g transform="translate(256.0, 256.0) scale(0.5)"><g><path d="m461.13 50.87c-32.8-32.81-76.41-50.87-122.8-50.87-46.38 0-90 18.06-122.8 50.87-26.87 26.87-43.87 60.92-49.15 98.47-4.59 32.56.3 66.26 13.78 96.08l-180.16 180.15v86.43h86.43l27.95-27.96-.22-31.62 32.07-.22 34.35-34.35v-28.55l28.85-.3 57.15-57.16c29.82 13.48 63.52 18.37 96.08 13.79 37.55-5.29 71.6-22.29 98.47-49.16 32.81-32.8 50.87-76.42 50.87-122.8 0-46.39-18.06-90-50.87-122.8zm-57.28 119.55c-17.19 17.2-45.07 17.2-62.27 0s-17.2-45.08 0-62.27c17.2-17.2 45.08-17.2 62.27 0 17.2 17.19 17.2 45.07 0 62.27z" fill="#febf01" /><path d="m512 173.67c0 46.38-18.06 90-50.87 122.8-26.87 26.87-60.92 43.87-98.47 49.16-32.56 4.58-66.26-.31-96.08-13.79l-57.15 57.16-28.85.3v28.55l-34.35 34.35-32.07.22.22 31.62-27.95 27.96h-86.43l341.58-341.58c17.2 17.2 45.08 17.2 62.27 0 17.2-17.2 17.2-45.08 0-62.27l57.28-57.28c32.81 32.8 50.87 76.41 50.87 122.8z" fill="#fe9100" /><path d="m414.46 97.54c-23.02-23.02-60.47-23.02-83.49 0-23.01 23.02-23.01 60.47 0 83.49 11.15 11.15 25.98 17.29 41.75 17.29 7.88 0 15.53-1.54 22.6-4.46 7.07-2.93 13.56-7.26 19.14-12.83 11.15-11.15 17.29-25.98 17.29-41.75 0-15.76-6.14-30.59-17.29-41.74zm-14.9 52.86c-1.44 3.48-3.57 6.67-6.31 9.41-5.49 5.49-12.78 8.51-20.53 8.51-7.76 0-15.05-3.02-20.53-8.51-11.32-11.32-11.32-29.74 0-41.06 5.66-5.66 13.09-8.49 20.53-8.49 7.43 0 14.87 2.83 20.53 8.49 5.48 5.49 8.5 12.78 8.5 20.53 0 3.88-.75 7.64-2.19 11.12z" fill="#ffda2d" /><path d="m431.75 139.28c0 15.77-6.14 30.6-17.29 41.75-5.58 5.57-12.07 9.9-19.14 12.83-7.07 2.92-14.72 4.46-22.6 4.46-15.77 0-30.6-6.14-41.75-17.29l21.22-21.22c5.48 5.49 12.77 8.51 20.53 8.51 7.75 0 15.04-3.02 20.53-8.51 2.74-2.74 4.87-5.93 6.31-9.41s2.19-7.24 2.19-11.12c0-7.75-3.02-15.04-8.5-20.53l21.21-21.21c11.15 11.15 17.29 25.98 17.29 41.74z" fill="#febf01" /></g></g></svg>