<svg height="512pt" viewBox="0 0 512 512" width="512pt" xmlns="http://www.w3.org/2000/svg"><path d="m467 411h-422c-24.8125 0-45-20.1875-45-45v-250c0-24.8125 20.1875-45 45-45h422c24.8125 0 45 20.1875 45 45v250c0 24.8125-20.1875 45-45 45zm0 0" fill="#92d6f4"/><path d="m467 71h-211v340h211c24.8125 0 45-20.1875 45-45v-250c0-24.8125-20.1875-45-45-45zm0 0" fill="#4bbaed"/><path d="m512 231h-512v-90h512zm0 0" fill="#4bbaed"/><path d="m512 231h-256v-90h256zm0 0" fill="#0999db"/><path d="m256 511.210938-65-65v-69.5625l16.246094-25.648438-19-30 19-30-16.246094-25.648438v-74.351562h130v255.210938zm0 0" fill="#f90"/><path d="m256 511.210938 65-65v-255.210938h-65zm0 0" fill="#ff7703"/><path d="m256 0c-63.6875 0-115.5 51.8125-115.5 115.5s51.8125 115.5 115.5 115.5 115.5-51.8125 115.5-115.5-51.8125-115.5-115.5-115.5zm0 165.5c-27.570312 0-50-22.429688-50-50s22.429688-50 50-50 50 22.429688 50 50-22.429688 50-50 50zm0 0" fill="#fbde55"/><path d="m306 115.5c0 27.570312-22.429688 50-50 50v65.5c63.6875 0 115.5-51.8125 115.5-115.5s-51.8125-115.5-115.5-115.5v65.5c27.570312 0 50 22.429688 50 50zm0 0" fill="#ffb62c"/><g fill="#fbde55"><path d="m273 276h48v30h-48zm0 0"/><path d="m273 336h48v30h-48zm0 0"/></g></svg>