<?xml version="1.0" encoding="iso-8859-1"?>
<!-- Generator: Adobe Illustrator 19.0.0, SVG Export Plug-In . SVG Version: 6.00 Build 0)  -->
<svg version="1.1" id="Capa_1" xmlns="http://www.w3.org/2000/svg" xmlns:xlink="http://www.w3.org/1999/xlink" x="0px" y="0px"
	 viewBox="0 0 512 512" style="enable-background:new 0 0 512 512;" xml:space="preserve">
<path style="fill:#0EBFC4;" d="M507.503,25.743L316.485,162.766l-24.988,47.888l166.238,115.047l50.544,8.128
	C510.652,328.354,512,322.337,512,316V45C512,38.084,510.303,31.604,507.503,25.743z"/>
<path style="fill:#1BD9DE;" d="M4.495,25.745C1.696,31.604,0,38.084,0,45v271c0,6.277,1.309,12.248,3.64,17.681l50.473-8.064
	l136.361-114.983l5.01-47.891L4.495,25.745z"/>
<path style="fill:#1DE8F1;" d="M508.4,333.699C500.9,350.799,483.5,361,467,361H45c-16.8,0-34.2-10.501-41.4-27.301L195.4,162.7
	c30.3,21.599,16.501,11.999,60.601,43.499c45.901-32.999,39.901-28.799,60.601-43.499L508.4,333.699z"/>
<path style="fill:#1BD9DE;" d="M316.601,162.7c-20.7,14.7-14.7,10.499-60.601,43.499V361h211c16.5,0,33.9-10.201,41.4-27.301
	L316.601,162.7z"/>
<path style="fill:#E1E4FB;" d="M507.499,25.8L265.901,237.4C262.9,239.799,259.6,241,256,241s-6.899-1.201-9.901-3.6L4.501,25.8
	C12.299,9.3,28.801,0,45,0h422C483.199,0,499.701,9.3,507.499,25.8z"/>
<path style="fill:#C5C9F7;" d="M467,0H256v241c3.6,0,6.899-1.201,9.901-3.6L507.499,25.8C499.701,9.3,483.199,0,467,0z"/>
<path style="fill:#0D70B2;" d="M331,286v60c0,8.399-6.599,15-15,15s-15-6.601-15-15v-60c0-24.901-20.099-45-45-45s-45,20.099-45,45
	v60c0,8.399-6.599,15-15,15s-15-6.601-15-15v-60c0-41.4,33.6-75,75-75S331,244.6,331,286z"/>
<path style="fill:#095C92;" d="M331,286v60c0,8.399-6.599,15-15,15s-15-6.601-15-15v-60c0-24.901-20.099-45-45-45v-30
	C297.4,211,331,244.6,331,286z"/>
<path style="fill:#FEA832;" d="M316,331H196c-24.901,0-45,20.099-45,45v91c0,24.899,20.099,45,45,45h120c24.901,0,45-20.101,45-45
	v-91C361,351.099,340.901,331,316,331z"/>
<path style="fill:#FE9923;" d="M361,376v91c0,24.899-20.099,45-45,45h-60V331h60C340.901,331,361,351.099,361,376z"/>
<path style="fill:#0D70B2;" d="M271,406v31c0,8.399-6.599,15-15,15s-15-6.601-15-15v-31c0-8.401,6.599-15,15-15S271,397.599,271,406
	z"/>
<path style="fill:#095C92;" d="M271,406v31c0,8.399-6.599,15-15,15v-61C264.401,391,271,397.599,271,406z"/>
<g>
</g>
<g>
</g>
<g>
</g>
<g>
</g>
<g>
</g>
<g>
</g>
<g>
</g>
<g>
</g>
<g>
</g>
<g>
</g>
<g>
</g>
<g>
</g>
<g>
</g>
<g>
</g>
<g>
</g>
</svg>
