<?xml version='1.0' encoding='utf-8'?>
<svg xmlns="http://www.w3.org/2000/svg" id="Capa_1" enable-background="new 0 0 512 512" height="512" viewBox="0 0 512 512" width="512"><g><g><path d="m120 512v-60.835c-67.412-7.485-120-64.79-120-134.165v-182c0-74.443 60.557-135 135-135h242c74.443 0 135 60.557 135 135v182c0 74.443-60.557 135-135 135h-177.005z" fill="#6cf" /></g><path d="m377 0h-121v452h121c74.443 0 135-60.557 135-135v-182c0-74.443-60.557-135-135-135z" fill="#59abff" /><g id="Chatbot_18_"><g><g><g><g><path d="m241 61h30v75h-30z" fill="#cfd7e6" /></g></g></g><path d="m256 61h15v75h-15z" fill="#adb8cc" /><g><g><path d="m406 211h45v30h-45z" fill="#adb8cc" /></g></g><g><g><g><path d="m61 211h45v30h-45z" fill="#cfd7e6" /></g></g></g><path d="m346 391h-180c-41.353 0-75-33.647-75-75v-120c0-41.353 33.647-75 75-75h180c41.353 0 75 33.647 75 75v120c0 41.353-33.647 75-75 75z" fill="#f3f5f9" /><path d="m346 121h-90v270h90c41.353 0 75-33.647 75-75v-120c0-41.353-33.647-75-75-75z" fill="#e1e6f0" /><path d="m166 361c-24.814 0-45-20.186-45-45v-120c0-24.814 20.186-45 45-45h180c24.814 0 45 20.186 45 45v120c0 24.814-20.186 45-45 45z" fill="#4d4d80" /><path d="m346 151h-90v210h90c24.814 0 45-20.186 45-45v-120c0-24.814-20.186-45-45-45z" fill="#443d66" /></g><g><path d="m166 181h30v30h-30z" fill="#6cf" /></g><g><path d="m316 181h30v30h-30z" fill="#59abff" /></g><g><path d="m256 331c-33.091 0-60-26.909-60-60v-30h120v30c0 33.091-26.909 60-60 60z" fill="#6cf" /></g></g><g><path d="m316 271v-30h-60v90c33.091 0 60-26.909 60-60z" fill="#59abff" /></g></g><g transform="translate(256.0, 256.0) scale(0.5)"><g><path d="m412.301 30-30-30h-252.602l-30 30h-68.699v187.599c0 135 90.901 256 220.8 293.2l4.2 1.201 4.2-1.201c129.899-37.2 220.8-158.2 220.8-293.2v-187.599z" fill="#f3f5f9" /><path d="m481 30v187.599c0 135-90.901 256-220.8 293.2l-4.2 1.201v-512h126.301l30 30z" fill="#e1e6f0" /><path d="m451 60v157.599c0 120.3-80.099 228.401-195 263.2-114.901-34.799-195-142.9-195-263.2v-157.599h51.301l30-30h227.399l30 30z" fill="#5f5166" /><path d="m451 60v157.599c0 120.3-80.099 228.401-195 263.2v-450.799h113.699l30 30z" fill="#45354d" /><g><path d="m331 135v61h-30v-61c0-24.901-20.099-45-45-45s-45 20.099-45 45v61h-30v-61c0-41.4 33.6-75 75-75s75 33.6 75 75z" fill="#f3f5f9" /></g><path d="m331 135v61h-30v-61c0-24.901-20.099-45-45-45v-30c41.4 0 75 33.6 75 75z" fill="#e1e6f0" /><g><path d="m151 181v105c0 57.9 47.1 105 105 105s105-47.1 105-105v-105z" fill="#ffdf40" /></g><path d="m361 181v105c0 57.9-47.1 105-105 105v-210z" fill="#ffbe40" /><g><path d="m241 241h30v90h-30z" fill="#5f5166" /></g><path d="m256 241h15v90h-15z" fill="#45354d" /></g></g></svg>